PathFileType	4	(X/Y/Z)	./resultDataOpenSim/trcMotMarkerGrf/sub09/qtm-03-05.trc
DataRate	CameraRate	NumFrames	NumMarkers	Units	OrigDataRate	OrigDataStartFrame	OrigNumFrames
250.000000	250.000000	14	24	m	250.000000	117	466
Frame#	Time	L.Toe.Tip			R.Toe.Tip			L.Ankle.Lat			R.Ankle.Lat			L.Ankle.Med			R.Ankle.Med			L.Heel			R.Heel			L.Knee.Lat			R.Knee.Lat			L.Knee.Med			R.Knee.Med			L.Thigh.Upper			R.Thigh.Upper			L.ASIS			R.ASIS			V.Sacral			L.Acromium			R.Acromium			C7			L.Elbow			R.Elbow			L.Wrist.Lat			R.Wrist.Lat
		X1	Y1	Z1	X2	Y2	Z2	X3	Y3	Z3	X4	Y4	Z4	X5	Y5	Z5	X6	Y6	Z6	X7	Y7	Z7	X8	Y8	Z8	X9	Y9	Z9	X10	Y10	Z10	X11	Y11	Z11	X12	Y12	Z12	X13	Y13	Z13	X14	Y14	Z14	X15	Y15	Z15	X16	Y16	Z16	X17	Y17	Z17	X18	Y18	Z18	X19	Y19	Z19	X20	Y20	Z20	X21	Y21	Z21	X22	Y22	Z22	X23	Y23	Z23	X24	Y24	Z24

117	0.464	-0.43922945	0.072910623	-0.037930685	-0.71678447	0.040123832	0.069509952	-0.58399347	0.11547416	-0.068503888	-0.86581974	0.055313043	0.098090215	-0.55643567	0.12863839	0.025150564	-0.85124992	0.095236779	0.0084140596	-0.6543141	0.078265415	-0.018172199	-0.93222435	0.034669789	0.043016829	-0.49904887	0.52468147	-0.096089384	-0.74534926	0.49759903	0.17145543	-0.50057695	0.51853329	0.030409702	-0.75783899	0.49087154	0.043763793	-0.68727182	0.89882474	-0.13733581	-0.72999275	0.90346624	0.23377869	-0.62095319	0.98245418	-0.071383955	-0.62219182	0.98489797	0.16813025	-0.79164197	1.0416147	0.039239023	-0.63178673	1.4392058	-0.11999484	-0.64010852	1.4456671	0.20879336	-0.70237043	1.4908061	0.045870269	-0.78386204	1.105339	-0.16076959	-0.76200448	1.0953771	0.29934467	-0.68749956	0.86482889	-0.20475838	-0.55541681	0.90852668	0.27203458
118	0.468	-0.42006152	0.073320267	-0.037038806	-0.7167287	0.0400549	0.069594975	-0.56597734	0.11222114	-0.067821792	-0.86579348	0.055405798	0.097955899	-0.53877186	0.12640757	0.025863923	-0.85102388	0.09521146	0.0082244433	-0.63510586	0.073486165	-0.017356909	-0.93220947	0.0348286	0.042770178	-0.49215493	0.5238915	-0.096220603	-0.74401302	0.49727344	0.17167044	-0.49335838	0.51781115	0.030359528	-0.75589418	0.49057572	0.043716069	-0.68131226	0.8977881	-0.13743219	-0.72471442	0.90278968	0.23373446	-0.61463174	0.98144496	-0.071302638	-0.61633394	0.9839338	0.16828344	-0.78585086	1.0405508	0.039218974	-0.62579591	1.4382952	-0.11995675	-0.63427141	1.4448229	0.2088613	-0.69633199	1.489957	0.045866089	-0.7792288	1.1051626	-0.16094684	-0.75573674	1.0942137	0.2996125	-0.68424344	0.86420021	-0.20554672	-0.54750733	0.90913712	0.27172076
119	0.472	-0.40097955	0.073870235	-0.036172641	-0.71672453	0.03994804	0.069640297	-0.54794608	0.10914604	-0.067142526	-0.86573603	0.055499921	0.097758689	-0.52109287	0.12432488	0.026557772	-0.85077296	0.095172423	0.0080058677	-0.61590928	0.068976983	-0.016738165	-0.93218888	0.034995096	0.042489397	-0.48538021	0.52298022	-0.096456219	-0.74255347	0.49692434	0.17185245	-0.48632123	0.51692831	0.030224615	-0.75396218	0.49022132	0.043596565	-0.67524833	0.89665553	-0.13753799	-0.71938892	0.9020375	0.23366665	-0.60828206	0.9803362	-0.071235752	-0.61043214	0.98289577	0.16842769	-0.78010373	1.0393644	0.038958315	-0.61979907	1.4373205	-0.11993914	-0.62841223	1.4438832	0.20890684	-0.69015248	1.4889887	0.045807198	-0.77469175	1.1049028	-0.16120228	-0.74946179	1.0929697	0.29986842	-0.68078409	0.86355039	-0.20627929	-0.53961249	0.90965827	0.27141124
120	0.476	-0.38199979	0.074580685	-0.035311577	-0.71672672	0.039833833	0.069654818	-0.52992139	0.10625811	-0.066477337	-0.86561873	0.055599673	0.097473923	-0.50346431	0.12241287	0.027239399	-0.85051813	0.095133647	0.0077553912	-0.59672889	0.064685937	-0.016189443	-0.93216297	0.035164814	0.042180785	-0.47873972	0.52192847	-0.096788721	-0.7409106	0.49653606	0.17203259	-0.47942075	0.51590314	0.030018689	-0.75200446	0.48983555	0.043454854	-0.66899274	0.89544875	-0.13762367	-0.71403805	0.90122542	0.23358959	-0.60190206	0.97913477	-0.071177869	-0.60450493	0.98178939	0.1685655	-0.7739636	1.03798	0.038007152	-0.61380204	1.4362863	-0.11994559	-0.62253193	1.4428491	0.2089162	-0.68403165	1.4879091	0.04573753	-0.77009964	1.1045625	-0.16146309	-0.74317704	1.0916424	0.30010597	-0.67709127	0.86289703	-0.2069321	-0.53173912	0.9100919	0.27110659
121	0.48	-0.36313819	0.075469599	-0.034430324	-0.71670243	0.039733829	0.069649039	-0.51192785	0.10356236	-0.065822831	-0.86542947	0.0557256	0.097131271	-0.48592032	0.12070871	0.027933661	-0.85026875	0.095106402	0.0074519985	-0.57753579	0.060590479	-0.015516509	-0.93213233	0.035341355	0.041858764	-0.47220414	0.52070115	-0.09715263	-0.73902284	0.49609901	0.17223051	-0.47264235	0.51473935	0.029742037	-0.74994448	0.48945057	0.043360856	-0.66253042	0.89417191	-0.13767393	-0.70868602	0.90036841	0.23352579	-0.595493	0.97784432	-0.071122064	-0.59857136	0.98062585	0.16870082	-0.76731204	1.0364448	0.036477349	-0.60780242	1.435197	-0.11997049	-0.61663419	1.4417325	0.20889066	-0.67807148	1.4867581	0.045689925	-0.76538386	1.1041527	-0.16170274	-0.7368825	1.0902329	0.3003236	-0.67325075	0.86221361	-0.20754698	-0.52389531	0.91043434	0.27080473
122	0.484	-0.34440922	0.076548952	-0.033505139	-0.71664584	0.039647328	0.069632887	-0.4939636	0.10107811	-0.065159618	-0.86518775	0.055911503	0.096811486	-0.46845972	0.11925142	0.028689417	-0.85002174	0.095093579	0.0070811658	-0.55835852	0.056725382	-0.014692611	-0.93209737	0.035528454	0.041535624	-0.46573669	0.51929279	-0.097497499	-0.73687834	0.4956108	0.17242058	-0.46597311	0.5134385	0.029398417	-0.74775334	0.48905491	0.043353476	-0.65599911	0.89280155	-0.13771557	-0.70332944	0.89946398	0.23347576	-0.58905905	0.97647128	-0.071058838	-0.59264633	0.97941062	0.16884183	-0.76053544	1.0348438	0.03503458	-0.60179699	1.4340527	-0.12000447	-0.61073235	1.4405471	0.20884823	-0.6722175	1.485561	0.045663289	-0.76056933	1.1036904	-0.16194671	-0.73057886	1.0887459	0.30052303	-0.66939928	0.86145125	-0.20819938	-0.51608375	0.91068302	0.27050518
123	0.488	-0.32582574	0.077829533	-0.032512694	-0.7165691	0.039559564	0.06961786	-0.47602043	0.098827687	-0.06447508	-0.86490756	0.056166224	0.096551891	-0.45107753	0.11805802	0.029545649	-0.84977237	0.095089379	0.006665716	-0.53926027	0.053142444	-0.013822748	-0.93205849	0.035725816	0.041212436	-0.4593105	0.5177109	-0.097795624	-0.73455821	0.49507865	0.17253237	-0.45939888	0.51200904	0.028996598	-0.74545493	0.48860776	0.04343309	-0.64956708	0.89131587	-0.13778132	-0.69794466	0.89849919	0.2334214	-0.58260453	0.97502562	-0.070978536	-0.5867356	0.97814339	0.16900053	-0.75394441	1.0331916	0.034161667	-0.59578868	1.4328492	-0.12004479	-0.60484665	1.4392968	0.20881202	-0.6663721	1.4843167	0.045641888	-0.75569998	1.103184	-0.1622238	-0.72426634	1.0871848	0.30070396	-0.66557557	0.86059016	-0.20892398	-0.50830463	0.91084129	0.2702133
124	0.492	-0.30740274	0.079325347	-0.031429191	-0.71648575	0.039462702	0.069614436	-0.45812296	0.096815494	-0.063769602	-0.86461236	0.056440412	0.096297569	-0.43378923	0.11709886	0.030485866	-0.84952171	0.095087575	0.0062536421	-0.52027209	0.049860921	-0.012979994	-0.93201455	0.035933171	0.040886785	-0.4528891	0.51596126	-0.098034694	-0.73216301	0.49451502	0.17251059	-0.45292164	0.51046011	0.028553244	-0.74305872	0.48811334	0.043548525	-0.6432648	0.88972537	-0.13786443	-0.69251495	0.89746619	0.23335032	-0.57612971	0.97351165	-0.070873756	-0.58082407	0.97682382	0.1691804	-0.74751707	1.0314964	0.03382536	-0.58978722	1.4315844	-0.1201018	-0.59897798	1.437973	0.20879696	-0.66047936	1.4830148	0.045611341	-0.75078558	1.102618	-0.16252982	-0.71794477	1.0855519	0.30086384	-0.66172108	0.85964762	-0.2096992	-0.50056337	0.91091389	0.26993742
125	0.496	-0.28916256	0.081052258	-0.030239036	-0.71640688	0.039366893	0.069619155	-0.44032373	0.09503241	-0.063039468	-0.86437215	0.056671626	0.095994546	-0.4166309	0.1163239	0.031440171	-0.8492709	0.095089477	0.0058719854	-0.50140175	0.046865605	-0.012161547	-0.93196308	0.036156345	0.040558709	-0.44646027	0.51406244	-0.098224411	-0.72970184	0.49392408	0.17236661	-0.44655124	0.50879076	0.028106218	-0.74054886	0.48761803	0.043593091	-0.63701917	0.88805889	-0.13792659	-0.68704124	0.89636705	0.2332625	-0.56963062	0.9719248	-0.070742526	-0.57488184	0.97544803	0.1693737	-0.74114831	1.0298128	0.033784457	-0.58380265	1.4302636	-0.12018877	-0.59309994	1.4365692	0.20880126	-0.65453388	1.4816454	0.045564295	-0.74581174	1.1019654	-0.16284238	-0.71161323	1.0838503	0.3010019	-0.65781663	0.85864184	-0.21049669	-0.49286642	0.91090147	0.26967936
126	0.5	-0.27113959	0.083017754	-0.028949665	-0.71634561	0.039288937	0.069606758	-0.42268111	0.093473224	-0.062277393	-0.86424558	0.056856633	0.0956763	-0.39964062	0.11571869	0.032338483	-0.84901243	0.095100606	0.0055132177	-0.4826615	0.044129365	-0.011342746	-0.93190387	0.0364078	0.040227681	-0.44008678	0.51202266	-0.09838138	-0.72710957	0.49329653	0.17216245	-0.44028525	0.50699181	0.027715052	-0.73791533	0.48712993	0.043493322	-0.63076279	0.88633422	-0.13793781	-0.68153826	0.89520764	0.2331687	-0.56310353	0.97026036	-0.070589451	-0.56889641	0.97401296	0.16957771	-0.7347867	1.0281679	0.033847468	-0.57783603	1.4288961	-0.1203033	-0.58718669	1.4350946	0.20880961	-0.64855501	1.4802031	0.045502877	-0.74077332	1.1012128	-0.1631553	-0.70526831	1.082081	0.30111831	-0.65391697	0.85757218	-0.21131094	-0.48521411	0.91080282	0.26943604
127	0.504	-0.25338315	0.085209659	-0.027600907	-0.71631335	0.039232575	0.069551567	-0.40525002	0.092135754	-0.061490453	-0.86421355	0.057035812	0.095405282	-0.38283264	0.11530666	0.033158278	-0.84873826	0.095124446	0.0051655236	-0.46407012	0.041628024	-0.010504719	-0.93184024	0.036695342	0.039892858	-0.43386528	0.50983936	-0.098525697	-0.72433427	0.49262391	0.17196472	-0.43409382	0.50505514	0.02743963	-0.73516249	0.48660542	0.043294601	-0.62445832	0.88455245	-0.13789116	-0.67602034	0.89399227	0.23308218	-0.55654974	0.9685209	-0.070417971	-0.56288789	0.97252733	0.16979894	-0.72841506	1.0265329	0.033923369	-0.57186873	1.427483	-0.12042259	-0.5812348	1.4335654	0.20880316	-0.64255929	1.4786953	0.045434061	-0.73567909	1.100365	-0.16348299	-0.69890355	1.0802418	0.30121166	-0.65006448	0.85643038	-0.21214564	-0.47760408	0.91061767	0.26920791
128	0.508	-0.23594405	0.087603804	-0.026252907	-0.7163064	0.039186044	0.069463586	-0.38807096	0.09100991	-0.060700941	-0.86420864	0.057229801	0.095185944	-0.36621735	0.11510007	0.033909574	-0.8484575	0.095159634	0.0048336962	-0.44565144	0.039349513	-0.0096446393	-0.93177514	0.037014872	0.039552206	-0.42783085	0.50752937	-0.098665809	-0.72137238	0.49190483	0.17181234	-0.4279336	0.50297715	0.027310971	-0.73230036	0.48601092	0.043099546	-0.61809494	0.88271281	-0.13778547	-0.67048181	0.89271939	0.23299936	-0.54997274	0.96671427	-0.070229629	-0.5568857	0.97100391	0.17004132	-0.72203627	1.0248677	0.034003551	-0.56587506	1.4260135	-0.12052394	-0.57525547	1.4319888	0.20877359	-0.6365468	1.4771371	0.04536184	-0.73053795	1.0994328	-0.16384028	-0.69251463	1.0783338	0.30128221	-0.64625276	0.85521168	-0.21300402	-0.47003565	0.91034543	0.2689975
129	0.512	-0.21884942	0.090182215	-0.024952866	-0.71630554	0.039136181	0.069382334	-0.37115828	0.090082717	-0.059932445	-0.86418038	0.057427851	0.094983528	-0.34984724	0.11507148	0.034589704	-0.84819499	0.095196978	0.0045230344	-0.42743454	0.037291593	-0.0087905847	-0.93170984	0.037360591	0.039198695	-0.4219188	0.50512127	-0.098775463	-0.71825736	0.49113323	0.17170786	-0.42179562	0.50076015	0.027317353	-0.72932794	0.4853492	0.042956078	-0.6116837	0.88082409	-0.13762795	-0.66490788	0.8913856	0.23290807	-0.5433782	0.9648494	-0.070028607	-0.55089617	0.96944336	0.17030233	-0.71565794	1.0231431	0.034097318	-0.55986324	1.4244785	-0.12061095	-0.56926427	1.4303627	0.20873239	-0.63050824	1.4755336	0.045286157	-0.72534958	1.0984238	-0.16422367	-0.68610231	1.0763641	0.30133139	-0.64245711	0.85391405	-0.21389262	-0.46250836	0.90998593	0.26880489
130	0.516	-0.20209671	0.092934869	-0.023709542	-0.71629445	0.039077441	0.06933326	-0.3544988	0.089354499	-0.059197968	-0.86411245	0.05761854	0.09478016	-0.33379248	0.11518159	0.035195184	-0.84796164	0.095227383	0.0042249766	-0.40944944	0.035447902	-0.0079908538	-0.93164551	0.037736198	0.038829094	-0.41602012	0.50264406	-0.098816902	-0.71501426	0.49030096	0.17164047	-0.41570059	0.49841704	0.027418384	-0.72621934	0.48463933	0.042850592	-0.60524594	0.87889062	-0.1374438	-0.65931669	0.89000308	0.23282658	-0.53678029	0.96293426	-0.069818392	-0.54489815	0.96783365	0.17057508	-0.70926951	1.0213333	0.03417401	-0.55387102	1.422876	-0.12070626	-0.56328069	1.4286826	0.20869613	-0.62444159	1.4738854	0.045205949	-0.72009854	1.0973349	-0.16459791	-0.6796706	1.0743423	0.30135821	-0.63864054	0.85254108	-0.21481122	-0.45501842	0.90953908	0.26862664
